# xmcd
#
# Track frame offsets:
#	150
#	14181
#	26455
#	36781
#	47491
#	59048
#	69042
#	82141
#	95654
#	111477
#	123517
#	139807
#	158470
#	171035
#	182531
#	193859
#
# Disc length: 2709 seconds
#
# Revision: 1
# Processed by: cddbd v1.5.2PL0 Copyright (c) Steve Scherf et al.
# Submitted via: audiograbber 1.83.01
#
DISCID=de0a9310
DTITLE=Various Artist - Classic Country Volume 1
DYEAR=1900
DGENRE=
TTITLE0=Glen Campbell - Rhinestone Cowboy
TTITLE1=Billie Jo Spears - What I've Got In Mind
TTITLE2=Bobby Darin - Eighteen Yellow Roses
TTITLE3=Faron Young - Hello Walls
TTITLE4=Wanda Jackson - In The Middle Of A Heartache
TTITLE5=Willie Nelson - Touch Me
TTITLE6=Crystal Gayle - Talking In Your Sleep
TTITLE7=John Stewart - July, Your A Woman
TTITLE8=The Band - The Night They Drove Old Dixie Down
TTITLE9=Susan Raye - Desperado
TTITLE10=Clint Beattie - I Believe (The Wheel Does Turn)
TTITLE11=Juice Newton - Angel Of The Morning
TTITLE12=Dr Hook - Only Sixteen
TTITLE13=Jody Miller - He Walks Like A Man
TTITLE14=Sonny James - Young Love
TTITLE15=Frank Ifield - I Remember You
EXTD=
EXTT0=
EXTT1=
EXTT2=
EXTT3=
EXTT4=
EXTT5=
EXTT6=
EXTT7=
EXTT8=
EXTT9=
EXTT10=
EXTT11=
EXTT12=
EXTT13=
EXTT14=
EXTT15=
PLAYORDER=
